<svg width="26" height="26" viewBox="0 0 26 26" fill="none" xmlns="http://www.w3.org/2000/svg">
<g clip-path="url(#clip0_15_120)">
<path d="M7.16976 13.2301L12.7098 18.8001C13.3698 19.4601 14.4298 19.4601 15.0798 18.8001L15.4798 18.4001C16.1298 17.7401 17.1998 17.7401 17.8498 18.4001L19.4298 19.9901C20.0898 20.6501 20.0798 21.7201 19.4298 22.3801L18.5998 23.2001C16.3398 25.4701 12.7498 25.5901 10.3498 23.5501C10.2198 23.4401 10.0998 23.3301 9.96976 23.2001L2.78976 15.9801C2.66976 15.8601 2.54976 15.7301 2.43976 15.6001C0.409757 13.1901 0.519757 9.5801 2.77976 7.3001L3.60976 6.4701C4.25976 5.8101 5.32976 5.8101 5.97976 6.4701L7.55976 8.0601C8.21976 8.7201 8.20976 9.7901 7.55976 10.4501L7.15976 10.8501C6.51976 11.5001 6.51976 12.5701 7.16976 13.2301Z" stroke="#12C2E9" stroke-width="2" stroke-miterlimit="10" stroke-linecap="round" stroke-linejoin="round"/>
<path d="M10.46 1H25V11.12H17.51L13.82 14.33V11.13V11.12H10.46V1Z" stroke="#12C2E9" stroke-width="2" stroke-miterlimit="10" stroke-linecap="round" stroke-linejoin="round"/>
<path d="M21.61 6.80008C22.085 6.80008 22.47 6.41504 22.47 5.94008C22.47 5.46511 22.085 5.08008 21.61 5.08008C21.135 5.08008 20.75 5.46511 20.75 5.94008C20.75 6.41504 21.135 6.80008 21.61 6.80008Z" fill="#12C2E9"/>
<path d="M17.7301 6.80008C18.2051 6.80008 18.5901 6.41504 18.5901 5.94008C18.5901 5.46511 18.2051 5.08008 17.7301 5.08008C17.2552 5.08008 16.8701 5.46511 16.8701 5.94008C16.8701 6.41504 17.2552 6.80008 17.7301 6.80008Z" fill="#12C2E9"/>
<path d="M13.8497 6.80008C14.3247 6.80008 14.7097 6.41504 14.7097 5.94008C14.7097 5.46511 14.3247 5.08008 13.8497 5.08008C13.3748 5.08008 12.9897 5.46511 12.9897 5.94008C12.9897 6.41504 13.3748 6.80008 13.8497 6.80008Z" fill="#12C2E9"/>
</g>
<defs>
<clipPath id="clip0_15_120">
<rect width="26" height="26" fill="white"/>
</clipPath>
</defs>
</svg>
